<mxfile host="app.diagrams.net" agent="Mozilla/5.0 (Windows NT 10.0; Win64; x64) AppleWebKit/537.36 (KHTML, like Gecko) Chrome/133.0.0.0 Safari/537.36" version="26.1.0">
  <diagram name="Page-1" id="HyuIzGv5z0ODQZiv6KNc">
    <mxGraphModel dx="1686" dy="1534" grid="1" gridSize="10" guides="1" tooltips="1" connect="1" arrows="1" fold="1" page="1" pageScale="1" pageWidth="850" pageHeight="1100" math="0" shadow="0">
      <root>
        <mxCell id="0" />
        <mxCell id="1" parent="0" />
        <mxCell id="i3lkRlowQj3kjVQJtEun-16" value="" style="ellipse;whiteSpace=wrap;html=1;" parent="1" vertex="1">
          <mxGeometry x="-90" y="278.22" width="86" height="45.78" as="geometry" />
        </mxCell>
        <mxCell id="KMOSmgTqwzwwHoozK_6U-1" value="&lt;b&gt;Termék&lt;/b&gt;" style="rounded=0;whiteSpace=wrap;html=1;strokeWidth=2;" parent="1" vertex="1">
          <mxGeometry y="182" width="120" height="60" as="geometry" />
        </mxCell>
        <mxCell id="KMOSmgTqwzwwHoozK_6U-2" value="&lt;b&gt;Gyártó&lt;/b&gt;" style="rounded=0;whiteSpace=wrap;html=1;strokeWidth=2;" parent="1" vertex="1">
          <mxGeometry x="500" y="182" width="120" height="60" as="geometry" />
        </mxCell>
        <mxCell id="KMOSmgTqwzwwHoozK_6U-4" value="csom.egys" style="ellipse;whiteSpace=wrap;html=1;" parent="1" vertex="1">
          <mxGeometry x="-85" y="282" width="75" height="40" as="geometry" />
        </mxCell>
        <mxCell id="KMOSmgTqwzwwHoozK_6U-5" value="Név" style="ellipse;whiteSpace=wrap;html=1;" parent="1" vertex="1">
          <mxGeometry x="77.5" y="282" width="75" height="40" as="geometry" />
        </mxCell>
        <mxCell id="KMOSmgTqwzwwHoozK_6U-6" value="Ear" style="ellipse;whiteSpace=wrap;html=1;" parent="1" vertex="1">
          <mxGeometry x="165" y="282" width="75" height="40" as="geometry" />
        </mxCell>
        <mxCell id="KMOSmgTqwzwwHoozK_6U-13" value="" style="group" parent="1" vertex="1" connectable="0">
          <mxGeometry x="340" y="282" width="265" height="40" as="geometry" />
        </mxCell>
        <mxCell id="KMOSmgTqwzwwHoozK_6U-10" value="&lt;u&gt;Adószám&lt;/u&gt;" style="ellipse;whiteSpace=wrap;html=1;" parent="KMOSmgTqwzwwHoozK_6U-13" vertex="1">
          <mxGeometry x="30" width="75" height="40" as="geometry" />
        </mxCell>
        <mxCell id="KMOSmgTqwzwwHoozK_6U-11" value="Név" style="ellipse;whiteSpace=wrap;html=1;" parent="KMOSmgTqwzwwHoozK_6U-13" vertex="1">
          <mxGeometry x="122.5" width="75" height="40" as="geometry" />
        </mxCell>
        <mxCell id="KMOSmgTqwzwwHoozK_6U-12" value="Telephely" style="ellipse;whiteSpace=wrap;html=1;" parent="KMOSmgTqwzwwHoozK_6U-13" vertex="1">
          <mxGeometry x="220" width="75" height="40" as="geometry" />
        </mxCell>
        <mxCell id="KMOSmgTqwzwwHoozK_6U-14" value="" style="endArrow=none;html=1;rounded=0;entryX=0.5;entryY=1;entryDx=0;entryDy=0;" parent="1" target="KMOSmgTqwzwwHoozK_6U-1" edge="1">
          <mxGeometry width="50" height="50" relative="1" as="geometry">
            <mxPoint x="43" y="282" as="sourcePoint" />
            <mxPoint x="92.5" y="242" as="targetPoint" />
          </mxGeometry>
        </mxCell>
        <mxCell id="KMOSmgTqwzwwHoozK_6U-15" value="" style="endArrow=none;html=1;rounded=0;entryX=0.5;entryY=1;entryDx=0;entryDy=0;exitX=0.5;exitY=0;exitDx=0;exitDy=0;" parent="1" source="KMOSmgTqwzwwHoozK_6U-10" target="KMOSmgTqwzwwHoozK_6U-2" edge="1">
          <mxGeometry width="50" height="50" relative="1" as="geometry">
            <mxPoint x="376" y="282" as="sourcePoint" />
            <mxPoint x="425.5" y="242" as="targetPoint" />
          </mxGeometry>
        </mxCell>
        <mxCell id="KMOSmgTqwzwwHoozK_6U-16" value="" style="endArrow=none;html=1;rounded=0;entryX=0.5;entryY=1;entryDx=0;entryDy=0;exitX=0.5;exitY=0;exitDx=0;exitDy=0;" parent="1" source="KMOSmgTqwzwwHoozK_6U-5" target="KMOSmgTqwzwwHoozK_6U-1" edge="1">
          <mxGeometry width="50" height="50" relative="1" as="geometry">
            <mxPoint x="105" y="292" as="sourcePoint" />
            <mxPoint x="155" y="242" as="targetPoint" />
          </mxGeometry>
        </mxCell>
        <mxCell id="KMOSmgTqwzwwHoozK_6U-17" value="" style="endArrow=none;html=1;rounded=0;entryX=0.5;entryY=1;entryDx=0;entryDy=0;exitX=0.588;exitY=0.005;exitDx=0;exitDy=0;exitPerimeter=0;" parent="1" source="KMOSmgTqwzwwHoozK_6U-11" target="KMOSmgTqwzwwHoozK_6U-2" edge="1">
          <mxGeometry width="50" height="50" relative="1" as="geometry">
            <mxPoint x="452" y="282" as="sourcePoint" />
            <mxPoint x="452" y="242" as="targetPoint" />
          </mxGeometry>
        </mxCell>
        <mxCell id="KMOSmgTqwzwwHoozK_6U-19" value="" style="endArrow=none;html=1;rounded=0;entryX=0.5;entryY=1;entryDx=0;entryDy=0;exitX=0.424;exitY=0.033;exitDx=0;exitDy=0;exitPerimeter=0;" parent="1" source="KMOSmgTqwzwwHoozK_6U-12" target="KMOSmgTqwzwwHoozK_6U-2" edge="1">
          <mxGeometry width="50" height="50" relative="1" as="geometry">
            <mxPoint x="550" y="282" as="sourcePoint" />
            <mxPoint x="550" y="242" as="targetPoint" />
          </mxGeometry>
        </mxCell>
        <mxCell id="KMOSmgTqwzwwHoozK_6U-20" value="" style="endArrow=none;html=1;rounded=0;entryX=0.5;entryY=1;entryDx=0;entryDy=0;exitX=0.5;exitY=0;exitDx=0;exitDy=0;" parent="1" source="KMOSmgTqwzwwHoozK_6U-6" target="KMOSmgTqwzwwHoozK_6U-1" edge="1">
          <mxGeometry width="50" height="50" relative="1" as="geometry">
            <mxPoint x="210" y="282" as="sourcePoint" />
            <mxPoint x="130" y="242" as="targetPoint" />
          </mxGeometry>
        </mxCell>
        <mxCell id="KMOSmgTqwzwwHoozK_6U-21" value="T-Gy" style="rhombus;whiteSpace=wrap;html=1;strokeWidth=2;" parent="1" vertex="1">
          <mxGeometry x="280" y="172" width="80" height="80" as="geometry" />
        </mxCell>
        <mxCell id="KMOSmgTqwzwwHoozK_6U-22" value="" style="endArrow=none;html=1;rounded=0;exitX=1;exitY=0.5;exitDx=0;exitDy=0;entryX=0;entryY=0.5;entryDx=0;entryDy=0;startArrow=doubleBlock;startFill=1;" parent="1" source="KMOSmgTqwzwwHoozK_6U-1" target="KMOSmgTqwzwwHoozK_6U-21" edge="1">
          <mxGeometry width="50" height="50" relative="1" as="geometry">
            <mxPoint x="230" y="252" as="sourcePoint" />
            <mxPoint x="280" y="202" as="targetPoint" />
          </mxGeometry>
        </mxCell>
        <mxCell id="KMOSmgTqwzwwHoozK_6U-23" value="" style="endArrow=classic;html=1;rounded=0;entryX=0;entryY=0.5;entryDx=0;entryDy=0;endFill=1;" parent="1" target="KMOSmgTqwzwwHoozK_6U-2" edge="1">
          <mxGeometry width="50" height="50" relative="1" as="geometry">
            <mxPoint x="360" y="212" as="sourcePoint" />
            <mxPoint x="392.5" y="211.5" as="targetPoint" />
          </mxGeometry>
        </mxCell>
        <mxCell id="i3lkRlowQj3kjVQJtEun-1" value="Postai cím" style="ellipse;whiteSpace=wrap;html=1;" parent="1" vertex="1">
          <mxGeometry x="650" y="282" width="75" height="40" as="geometry" />
        </mxCell>
        <mxCell id="i3lkRlowQj3kjVQJtEun-2" value="" style="endArrow=none;html=1;rounded=0;entryX=0.5;entryY=1;entryDx=0;entryDy=0;exitX=0.424;exitY=0.033;exitDx=0;exitDy=0;exitPerimeter=0;" parent="1" target="KMOSmgTqwzwwHoozK_6U-2" edge="1">
          <mxGeometry width="50" height="50" relative="1" as="geometry">
            <mxPoint x="672" y="282" as="sourcePoint" />
            <mxPoint x="650" y="241" as="targetPoint" />
          </mxGeometry>
        </mxCell>
        <mxCell id="i3lkRlowQj3kjVQJtEun-3" value="" style="group" parent="1" vertex="1" connectable="0">
          <mxGeometry x="520" y="362" width="265" height="40" as="geometry" />
        </mxCell>
        <mxCell id="i3lkRlowQj3kjVQJtEun-10" value="" style="group" parent="i3lkRlowQj3kjVQJtEun-3" vertex="1" connectable="0">
          <mxGeometry x="40" width="265" height="40" as="geometry" />
        </mxCell>
        <mxCell id="i3lkRlowQj3kjVQJtEun-4" value="irányítószám" style="ellipse;whiteSpace=wrap;html=1;" parent="i3lkRlowQj3kjVQJtEun-10" vertex="1">
          <mxGeometry width="75" height="40" as="geometry" />
        </mxCell>
        <mxCell id="i3lkRlowQj3kjVQJtEun-5" value="város" style="ellipse;whiteSpace=wrap;html=1;" parent="i3lkRlowQj3kjVQJtEun-10" vertex="1">
          <mxGeometry x="92.5" width="75" height="40" as="geometry" />
        </mxCell>
        <mxCell id="i3lkRlowQj3kjVQJtEun-6" value="utca" style="ellipse;whiteSpace=wrap;html=1;" parent="i3lkRlowQj3kjVQJtEun-10" vertex="1">
          <mxGeometry x="190" width="75" height="40" as="geometry" />
        </mxCell>
        <mxCell id="i3lkRlowQj3kjVQJtEun-7" value="" style="endArrow=none;html=1;rounded=0;entryX=0.553;entryY=1.003;entryDx=0;entryDy=0;exitX=0.5;exitY=0;exitDx=0;exitDy=0;entryPerimeter=0;" parent="1" source="i3lkRlowQj3kjVQJtEun-4" target="i3lkRlowQj3kjVQJtEun-1" edge="1">
          <mxGeometry width="50" height="50" relative="1" as="geometry">
            <mxPoint x="550" y="362" as="sourcePoint" />
            <mxPoint x="702" y="322" as="targetPoint" />
          </mxGeometry>
        </mxCell>
        <mxCell id="i3lkRlowQj3kjVQJtEun-8" value="" style="endArrow=none;html=1;rounded=0;exitX=0.5;exitY=0;exitDx=0;exitDy=0;" parent="1" source="i3lkRlowQj3kjVQJtEun-5" edge="1">
          <mxGeometry width="50" height="50" relative="1" as="geometry">
            <mxPoint x="710" y="362" as="sourcePoint" />
            <mxPoint x="690" y="322" as="targetPoint" />
          </mxGeometry>
        </mxCell>
        <mxCell id="i3lkRlowQj3kjVQJtEun-11" value="" style="endArrow=none;html=1;rounded=0;exitX=0.5;exitY=0;exitDx=0;exitDy=0;" parent="1" source="i3lkRlowQj3kjVQJtEun-6" edge="1">
          <mxGeometry width="50" height="50" relative="1" as="geometry">
            <mxPoint x="608" y="372" as="sourcePoint" />
            <mxPoint x="690" y="322" as="targetPoint" />
          </mxGeometry>
        </mxCell>
        <mxCell id="i3lkRlowQj3kjVQJtEun-14" value="&lt;u&gt;Tkód&lt;/u&gt;" style="ellipse;whiteSpace=wrap;html=1;" parent="1" vertex="1">
          <mxGeometry x="-5" y="282" width="75" height="40" as="geometry" />
        </mxCell>
        <mxCell id="i3lkRlowQj3kjVQJtEun-15" value="" style="endArrow=none;html=1;rounded=0;exitX=0.5;exitY=0;exitDx=0;exitDy=0;" parent="1" source="KMOSmgTqwzwwHoozK_6U-4" edge="1">
          <mxGeometry width="50" height="50" relative="1" as="geometry">
            <mxPoint x="220" y="292" as="sourcePoint" />
            <mxPoint x="61" y="242" as="targetPoint" />
          </mxGeometry>
        </mxCell>
        <mxCell id="i3lkRlowQj3kjVQJtEun-17" value="" style="endArrow=none;html=1;rounded=0;startArrow=doubleBlock;startFill=1;entryX=0.5;entryY=1;entryDx=0;entryDy=0;" parent="1" edge="1" target="i3lkRlowQj3kjVQJtEun-19">
          <mxGeometry width="50" height="50" relative="1" as="geometry">
            <mxPoint x="60" y="181" as="sourcePoint" />
            <mxPoint x="60" y="90" as="targetPoint" />
          </mxGeometry>
        </mxCell>
        <mxCell id="i3lkRlowQj3kjVQJtEun-18" value="&lt;b&gt;Alkatrész&lt;/b&gt;" style="rounded=0;whiteSpace=wrap;html=1;strokeWidth=2;" parent="1" vertex="1">
          <mxGeometry x="-90" y="-102" width="120" height="60" as="geometry" />
        </mxCell>
        <mxCell id="i3lkRlowQj3kjVQJtEun-19" value="A-T" style="rhombus;whiteSpace=wrap;html=1;strokeWidth=2;" parent="1" vertex="1">
          <mxGeometry x="-70" y="20" width="80" height="80" as="geometry" />
        </mxCell>
        <mxCell id="i3lkRlowQj3kjVQJtEun-23" value="" style="endArrow=none;html=1;rounded=0;exitX=0.5;exitY=1;exitDx=0;exitDy=0;entryX=0.5;entryY=0;entryDx=0;entryDy=0;startArrow=doubleBlock;startFill=1;" parent="1" source="i3lkRlowQj3kjVQJtEun-18" target="i3lkRlowQj3kjVQJtEun-19" edge="1">
          <mxGeometry width="50" height="50" relative="1" as="geometry">
            <mxPoint x="50" y="-60" as="sourcePoint" />
            <mxPoint x="210" y="-60" as="targetPoint" />
          </mxGeometry>
        </mxCell>
        <mxCell id="i3lkRlowQj3kjVQJtEun-24" value="Akód" style="ellipse;whiteSpace=wrap;html=1;" parent="1" vertex="1">
          <mxGeometry x="-110" y="-192" width="75" height="40" as="geometry" />
        </mxCell>
        <mxCell id="i3lkRlowQj3kjVQJtEun-25" value="név" style="ellipse;whiteSpace=wrap;html=1;" parent="1" vertex="1">
          <mxGeometry x="-30" y="-192" width="75" height="40" as="geometry" />
        </mxCell>
        <mxCell id="i3lkRlowQj3kjVQJtEun-26" value="" style="endArrow=none;html=1;rounded=0;entryX=0.5;entryY=1;entryDx=0;entryDy=0;exitX=0.5;exitY=0;exitDx=0;exitDy=0;" parent="1" source="i3lkRlowQj3kjVQJtEun-18" target="i3lkRlowQj3kjVQJtEun-24" edge="1">
          <mxGeometry width="50" height="50" relative="1" as="geometry">
            <mxPoint x="-30" y="-112" as="sourcePoint" />
            <mxPoint x="-85" y="-152" as="targetPoint" />
          </mxGeometry>
        </mxCell>
        <mxCell id="i3lkRlowQj3kjVQJtEun-29" value="" style="endArrow=none;html=1;rounded=0;entryX=0.5;entryY=1;entryDx=0;entryDy=0;exitX=0.5;exitY=0;exitDx=0;exitDy=0;" parent="1" source="i3lkRlowQj3kjVQJtEun-18" target="i3lkRlowQj3kjVQJtEun-25" edge="1">
          <mxGeometry width="50" height="50" relative="1" as="geometry">
            <mxPoint x="-20" y="-92" as="sourcePoint" />
            <mxPoint x="-62" y="-142" as="targetPoint" />
          </mxGeometry>
        </mxCell>
        <mxCell id="pYsWCQxhy68z7fuoIkqs-1" value="&lt;b&gt;Rendelés&lt;/b&gt;" style="rounded=0;whiteSpace=wrap;html=1;strokeWidth=2;" vertex="1" parent="1">
          <mxGeometry x="86" y="-102" width="120" height="60" as="geometry" />
        </mxCell>
        <mxCell id="pYsWCQxhy68z7fuoIkqs-2" value="darabszám" style="ellipse;whiteSpace=wrap;html=1;" vertex="1" parent="1">
          <mxGeometry x="270" y="-72" width="75" height="40" as="geometry" />
        </mxCell>
        <mxCell id="pYsWCQxhy68z7fuoIkqs-3" value="dátum" style="ellipse;whiteSpace=wrap;html=1;" vertex="1" parent="1">
          <mxGeometry x="270" y="-120" width="75" height="40" as="geometry" />
        </mxCell>
        <mxCell id="pYsWCQxhy68z7fuoIkqs-4" value="" style="endArrow=none;html=1;rounded=0;entryX=0;entryY=0.5;entryDx=0;entryDy=0;exitX=1;exitY=0.5;exitDx=0;exitDy=0;" edge="1" parent="1" source="pYsWCQxhy68z7fuoIkqs-1" target="pYsWCQxhy68z7fuoIkqs-2">
          <mxGeometry width="50" height="50" relative="1" as="geometry">
            <mxPoint x="210" y="-70" as="sourcePoint" />
            <mxPoint x="101" y="-152" as="targetPoint" />
          </mxGeometry>
        </mxCell>
        <mxCell id="pYsWCQxhy68z7fuoIkqs-5" value="" style="endArrow=none;html=1;rounded=0;entryX=0;entryY=0.5;entryDx=0;entryDy=0;exitX=1;exitY=0.5;exitDx=0;exitDy=0;" edge="1" parent="1" source="pYsWCQxhy68z7fuoIkqs-1" target="pYsWCQxhy68z7fuoIkqs-3">
          <mxGeometry width="50" height="50" relative="1" as="geometry">
            <mxPoint x="166" y="-92" as="sourcePoint" />
            <mxPoint x="124" y="-142" as="targetPoint" />
          </mxGeometry>
        </mxCell>
        <mxCell id="pYsWCQxhy68z7fuoIkqs-6" value="" style="endArrow=none;html=1;rounded=0;exitX=0.5;exitY=1;exitDx=0;exitDy=0;startArrow=doubleBlock;startFill=1;" edge="1" parent="1" source="pYsWCQxhy68z7fuoIkqs-1">
          <mxGeometry width="50" height="50" relative="1" as="geometry">
            <mxPoint y="-20" as="sourcePoint" />
            <mxPoint x="146" y="30" as="targetPoint" />
          </mxGeometry>
        </mxCell>
        <mxCell id="pYsWCQxhy68z7fuoIkqs-7" value="R-T" style="rhombus;whiteSpace=wrap;html=1;strokeWidth=2;" vertex="1" parent="1">
          <mxGeometry x="106" y="20" width="80" height="80" as="geometry" />
        </mxCell>
        <mxCell id="pYsWCQxhy68z7fuoIkqs-8" value="" style="endArrow=none;html=1;rounded=0;startArrow=doubleBlock;startFill=1;entryX=0.5;entryY=1;entryDx=0;entryDy=0;exitX=0.5;exitY=0;exitDx=0;exitDy=0;" edge="1" parent="1" source="KMOSmgTqwzwwHoozK_6U-1" target="pYsWCQxhy68z7fuoIkqs-7">
          <mxGeometry width="50" height="50" relative="1" as="geometry">
            <mxPoint x="70" y="191" as="sourcePoint" />
            <mxPoint x="-20" y="110" as="targetPoint" />
          </mxGeometry>
        </mxCell>
        <mxCell id="pYsWCQxhy68z7fuoIkqs-9" value="Rkód" style="ellipse;whiteSpace=wrap;html=1;" vertex="1" parent="1">
          <mxGeometry x="270" y="-170" width="75" height="40" as="geometry" />
        </mxCell>
        <mxCell id="pYsWCQxhy68z7fuoIkqs-10" value="Ár" style="ellipse;whiteSpace=wrap;html=1;dashed=1;" vertex="1" parent="1">
          <mxGeometry x="270" y="-20" width="75" height="40" as="geometry" />
        </mxCell>
        <mxCell id="pYsWCQxhy68z7fuoIkqs-11" value="" style="endArrow=none;html=1;rounded=0;entryX=0;entryY=0.5;entryDx=0;entryDy=0;exitX=1;exitY=0.5;exitDx=0;exitDy=0;" edge="1" parent="1" source="pYsWCQxhy68z7fuoIkqs-1" target="pYsWCQxhy68z7fuoIkqs-9">
          <mxGeometry width="50" height="50" relative="1" as="geometry">
            <mxPoint x="216" y="-62" as="sourcePoint" />
            <mxPoint x="280" y="-90" as="targetPoint" />
          </mxGeometry>
        </mxCell>
        <mxCell id="pYsWCQxhy68z7fuoIkqs-12" value="" style="endArrow=none;html=1;rounded=0;entryX=0;entryY=0.5;entryDx=0;entryDy=0;exitX=1;exitY=0.5;exitDx=0;exitDy=0;" edge="1" parent="1" source="pYsWCQxhy68z7fuoIkqs-1" target="pYsWCQxhy68z7fuoIkqs-10">
          <mxGeometry width="50" height="50" relative="1" as="geometry">
            <mxPoint x="216" y="-62" as="sourcePoint" />
            <mxPoint x="280" y="-140" as="targetPoint" />
          </mxGeometry>
        </mxCell>
        <mxCell id="pYsWCQxhy68z7fuoIkqs-14" value="" style="endArrow=none;html=1;rounded=0;exitX=0.5;exitY=0;exitDx=0;exitDy=0;startArrow=doubleBlock;startFill=1;entryX=0.5;entryY=1;entryDx=0;entryDy=0;" edge="1" parent="1" source="pYsWCQxhy68z7fuoIkqs-1" target="pYsWCQxhy68z7fuoIkqs-15">
          <mxGeometry width="50" height="50" relative="1" as="geometry">
            <mxPoint x="156" y="-32" as="sourcePoint" />
            <mxPoint x="146" y="-190" as="targetPoint" />
          </mxGeometry>
        </mxCell>
        <mxCell id="pYsWCQxhy68z7fuoIkqs-15" value="V-R" style="rhombus;whiteSpace=wrap;html=1;strokeWidth=2;" vertex="1" parent="1">
          <mxGeometry x="106" y="-280" width="80" height="80" as="geometry" />
        </mxCell>
        <mxCell id="pYsWCQxhy68z7fuoIkqs-16" value="" style="endArrow=classic;html=1;rounded=0;endFill=1;exitX=0.5;exitY=0;exitDx=0;exitDy=0;" edge="1" parent="1">
          <mxGeometry width="50" height="50" relative="1" as="geometry">
            <mxPoint x="145.47" y="-280" as="sourcePoint" />
            <mxPoint x="145.47" y="-380" as="targetPoint" />
          </mxGeometry>
        </mxCell>
        <mxCell id="pYsWCQxhy68z7fuoIkqs-17" value="&lt;b&gt;Vevő&lt;/b&gt;" style="rounded=0;whiteSpace=wrap;html=1;strokeWidth=2;" vertex="1" parent="1">
          <mxGeometry x="86" y="-440" width="120" height="60" as="geometry" />
        </mxCell>
        <mxCell id="pYsWCQxhy68z7fuoIkqs-18" value="lakcím" style="ellipse;whiteSpace=wrap;html=1;" vertex="1" parent="1">
          <mxGeometry x="195" y="-530" width="75" height="40" as="geometry" />
        </mxCell>
        <mxCell id="pYsWCQxhy68z7fuoIkqs-19" value="név" style="ellipse;whiteSpace=wrap;html=1;" vertex="1" parent="1">
          <mxGeometry x="108.5" y="-530" width="75" height="40" as="geometry" />
        </mxCell>
        <mxCell id="pYsWCQxhy68z7fuoIkqs-20" value="" style="endArrow=none;html=1;rounded=0;entryX=0.5;entryY=0;entryDx=0;entryDy=0;exitX=0.5;exitY=1;exitDx=0;exitDy=0;" edge="1" parent="1" target="pYsWCQxhy68z7fuoIkqs-17" source="pYsWCQxhy68z7fuoIkqs-22">
          <mxGeometry width="50" height="50" relative="1" as="geometry">
            <mxPoint x="70" y="-490" as="sourcePoint" />
            <mxPoint x="150" y="-442" as="targetPoint" />
          </mxGeometry>
        </mxCell>
        <mxCell id="pYsWCQxhy68z7fuoIkqs-21" value="" style="endArrow=none;html=1;rounded=0;entryX=0.5;entryY=1;entryDx=0;entryDy=0;" edge="1" parent="1" target="pYsWCQxhy68z7fuoIkqs-19" source="pYsWCQxhy68z7fuoIkqs-17">
          <mxGeometry width="50" height="50" relative="1" as="geometry">
            <mxPoint x="153" y="-442" as="sourcePoint" />
            <mxPoint x="153" y="-510" as="targetPoint" />
          </mxGeometry>
        </mxCell>
        <mxCell id="pYsWCQxhy68z7fuoIkqs-22" value="Vkód" style="ellipse;whiteSpace=wrap;html=1;" vertex="1" parent="1">
          <mxGeometry x="22.5" y="-530" width="75" height="40" as="geometry" />
        </mxCell>
        <mxCell id="pYsWCQxhy68z7fuoIkqs-24" value="" style="endArrow=none;html=1;rounded=0;exitX=1;exitY=0.5;exitDx=0;exitDy=0;entryX=0.5;entryY=1;entryDx=0;entryDy=0;" edge="1" parent="1" target="pYsWCQxhy68z7fuoIkqs-18">
          <mxGeometry width="50" height="50" relative="1" as="geometry">
            <mxPoint x="152.5" y="-440" as="sourcePoint" />
            <mxPoint x="210" y="-500" as="targetPoint" />
          </mxGeometry>
        </mxCell>
        <mxCell id="pYsWCQxhy68z7fuoIkqs-29" value="" style="group" vertex="1" connectable="0" parent="1">
          <mxGeometry x="102" y="-620" width="265" height="40" as="geometry" />
        </mxCell>
        <mxCell id="pYsWCQxhy68z7fuoIkqs-30" value="irányítószám" style="ellipse;whiteSpace=wrap;html=1;" vertex="1" parent="pYsWCQxhy68z7fuoIkqs-29">
          <mxGeometry width="75" height="40" as="geometry" />
        </mxCell>
        <mxCell id="pYsWCQxhy68z7fuoIkqs-31" value="város" style="ellipse;whiteSpace=wrap;html=1;" vertex="1" parent="pYsWCQxhy68z7fuoIkqs-29">
          <mxGeometry x="92.5" width="75" height="40" as="geometry" />
        </mxCell>
        <mxCell id="pYsWCQxhy68z7fuoIkqs-32" value="utca" style="ellipse;whiteSpace=wrap;html=1;" vertex="1" parent="pYsWCQxhy68z7fuoIkqs-29">
          <mxGeometry x="190" width="75" height="40" as="geometry" />
        </mxCell>
        <mxCell id="pYsWCQxhy68z7fuoIkqs-33" value="" style="endArrow=none;html=1;rounded=0;exitX=1;exitY=0.5;exitDx=0;exitDy=0;entryX=0.5;entryY=1;entryDx=0;entryDy=0;" edge="1" parent="1" target="pYsWCQxhy68z7fuoIkqs-32">
          <mxGeometry width="50" height="50" relative="1" as="geometry">
            <mxPoint x="240" y="-530" as="sourcePoint" />
            <mxPoint x="320.5" y="-580" as="targetPoint" />
          </mxGeometry>
        </mxCell>
        <mxCell id="pYsWCQxhy68z7fuoIkqs-34" value="" style="endArrow=none;html=1;rounded=0;exitX=0.5;exitY=0;exitDx=0;exitDy=0;" edge="1" parent="1" source="pYsWCQxhy68z7fuoIkqs-18">
          <mxGeometry width="50" height="50" relative="1" as="geometry">
            <mxPoint x="45" y="-530" as="sourcePoint" />
            <mxPoint x="139" y="-580" as="targetPoint" />
          </mxGeometry>
        </mxCell>
        <mxCell id="pYsWCQxhy68z7fuoIkqs-35" value="" style="endArrow=none;html=1;rounded=0;entryX=0.5;entryY=1;entryDx=0;entryDy=0;" edge="1" parent="1" target="pYsWCQxhy68z7fuoIkqs-31">
          <mxGeometry width="50" height="50" relative="1" as="geometry">
            <mxPoint x="232" y="-530" as="sourcePoint" />
            <mxPoint x="354" y="-560" as="targetPoint" />
          </mxGeometry>
        </mxCell>
      </root>
    </mxGraphModel>
  </diagram>
</mxfile>
